<!DOCTYPE svg PUBLIC "-//W3C//DTD SVG 20010904//EN" "http://www.w3.org/TR/2001/REC-SVG-20010904/DTD/svg10.dtd">
<svg version="1.0" xmlns="http://www.w3.org/2000/svg" width="100px" height="100px" viewBox="0 0 1000 1000" preserveAspectRatio="xMidYMid meet">
<g id="layer101" fill="#000000" stroke="none">
 <path d="M726 985 c-138 -49 -180 -231 -76 -335 83 -83 218 -77 297 13 95 108 46 282 -90 322 -61 18 -81 18 -131 0z m149 -65 c44 -27 79 -99 71 -144 -4 -19 -17 -48 -29 -66 -84 -124 -272 -66 -272 83 0 64 30 111 89 138 48 23 92 19 141 -11z"/>
 <path d="M680 795 c0 -13 16 -15 118 -13 153 4 151 22 -3 26 -99 2 -115 0 -115 -13z"/>
 <path d="M96 704 c-12 -31 -7 -409 6 -422 7 -7 34 -12 60 -12 l48 0 0 -92 0 -92 -28 27 c-29 28 -56 35 -68 16 -8 -14 104 -129 126 -129 21 0 120 101 120 123 0 27 -31 20 -67 -15 l-33 -32 0 97 0 97 318 2 317 3 3 153 c1 90 -1 152 -7 152 -38 0 -41 -10 -41 -136 l0 -124 -355 0 -355 0 0 175 0 175 226 0 c202 0 225 2 220 16 -3 9 -6 20 -6 25 0 5 -100 9 -239 9 -209 0 -240 -2 -245 -16z"/>
 </g>

</svg>