<!DOCTYPE svg PUBLIC "-//W3C//DTD SVG 20010904//EN" "http://www.w3.org/TR/2001/REC-SVG-20010904/DTD/svg10.dtd">
<svg version="1.0" xmlns="http://www.w3.org/2000/svg" width="100px" height="100px" viewBox="0 0 1000 1000" preserveAspectRatio="xMidYMid meet">
<g id="layer101" fill="#000000" stroke="none">
 <path d="M726 985 c-138 -49 -180 -231 -76 -335 83 -83 218 -77 297 13 95 108 46 282 -90 322 -61 18 -81 18 -131 0z m149 -65 c44 -27 79 -99 71 -144 -4 -19 -17 -48 -29 -66 -84 -124 -272 -66 -272 83 0 64 30 111 89 138 48 23 92 19 141 -11z"/>
 <path d="M793 812 c-91 -2 -113 -5 -113 -17 0 -12 21 -15 114 -15 63 0 117 4 120 8 13 21 -17 27 -121 24z"/>
 <path d="M277 893 c-4 -3 -7 -147 -7 -320 l0 -313 -97 0 -97 0 32 33 c35 36 42 67 14 67 -21 0 -122 -99 -122 -121 0 -21 116 -133 129 -125 19 12 12 39 -16 68 l-27 28 92 0 92 0 0 -48 c0 -26 5 -53 12 -60 13 -13 391 -18 422 -6 14 5 16 36 16 245 0 139 -4 239 -9 239 -5 0 -16 3 -25 6 -14 5 -16 -18 -16 -220 l0 -226 -175 0 -175 0 0 355 0 355 124 0 c126 0 136 3 136 41 0 10 -293 13 -303 2z"/>
 </g>

</svg>