<!DOCTYPE svg PUBLIC "-//W3C//DTD SVG 20010904//EN" "http://www.w3.org/TR/2001/REC-SVG-20010904/DTD/svg10.dtd">
<svg version="1.0" xmlns="http://www.w3.org/2000/svg" width="100px" height="100px" viewBox="0 0 1000 1000" preserveAspectRatio="xMidYMid meet">
<g id="layer101" fill="#000000" stroke="none">
 <path d="M726 985 c-138 -49 -180 -231 -76 -335 83 -83 218 -77 297 13 95 108 46 282 -90 322 -61 18 -81 18 -131 0z m149 -65 c44 -27 79 -99 71 -144 -4 -19 -17 -48 -29 -66 -84 -124 -272 -66 -272 83 0 64 30 111 89 138 48 23 92 19 141 -11z"/>
 <path d="M680 795 c0 -13 16 -15 118 -13 153 4 151 22 -3 26 -99 2 -115 0 -115 -13z"/>
 <path d="M277 893 c-4 -3 -7 -180 -7 -393 0 -287 3 -389 12 -398 13 -13 391 -18 422 -6 12 5 16 20 16 60 l0 54 92 0 92 0 -28 -29 c-28 -29 -32 -61 -9 -68 13 -5 108 79 125 110 8 16 1 29 -48 78 -58 59 -94 75 -94 42 0 -9 14 -32 32 -50 l32 -33 -97 0 -97 0 0 160 c0 90 -4 160 -9 160 -5 0 -16 3 -25 6 -14 5 -16 -18 -16 -220 l0 -226 -175 0 -175 0 0 355 0 355 124 0 c126 0 136 3 136 41 0 10 -293 13 -303 2z"/>
 </g>

</svg>