<!DOCTYPE svg PUBLIC "-//W3C//DTD SVG 20010904//EN" "http://www.w3.org/TR/2001/REC-SVG-20010904/DTD/svg10.dtd">
<svg version="1.0" xmlns="http://www.w3.org/2000/svg" width="100px" height="100px" viewBox="0 0 1000 1000" preserveAspectRatio="xMidYMid meet">
<g id="layer101" fill="#000000" stroke="none">
 <path d="M167 941 c-32 -33 -57 -66 -55 -73 8 -24 40 -20 69 8 l29 28 0 -92 0 -92 -54 0 c-40 0 -55 -4 -60 -16 -3 -9 -6 -105 -6 -214 0 -155 3 -200 14 -209 9 -8 123 -10 402 -9 l389 3 3 153 c1 90 -1 152 -7 152 -38 0 -41 -10 -41 -136 l0 -124 -355 0 -355 0 0 175 0 175 226 0 c202 0 225 2 220 16 -3 9 -6 20 -6 25 0 5 -70 9 -160 9 l-160 0 0 97 0 97 33 -32 c36 -35 67 -42 67 -14 0 18 -108 132 -124 132 -5 0 -36 -27 -69 -59z"/>
 <path d="M726 985 c-138 -49 -180 -231 -76 -335 83 -83 218 -77 297 13 95 108 46 282 -90 322 -61 18 -81 18 -131 0z m149 -65 c44 -27 79 -99 71 -144 -4 -19 -17 -48 -29 -66 -84 -124 -272 -66 -272 83 0 64 30 111 89 138 48 23 92 19 141 -11z"/>
 <path d="M783 913 c-8 -3 -13 -22 -13 -48 l0 -44 -47 -3 c-40 -3 -48 -6 -48 -23 0 -17 8 -20 47 -23 l47 -3 3 -47 c3 -39 6 -47 23 -47 17 0 20 8 23 48 l3 47 44 0 c26 0 45 5 48 13 9 26 -6 37 -49 37 l-44 0 0 44 c0 43 -11 58 -37 49z"/>
 </g>

</svg>